<mxfile host="65bd71144e">
    <diagram id="D7cOQiEuYc8gGJzFq1lg" name="第 1 页">
        <mxGraphModel dx="1205" dy="720" grid="1" gridSize="10" guides="1" tooltips="1" connect="1" arrows="1" fold="1" page="1" pageScale="1" pageWidth="827" pageHeight="1169" math="0" shadow="0">
            <root>
                <mxCell id="0"/>
                <mxCell id="1" parent="0"/>
                <mxCell id="2" value="ThemeProvider" style="rounded=1;whiteSpace=wrap;html=1;" vertex="1" parent="1">
                    <mxGeometry x="400" y="30" width="120" height="60" as="geometry"/>
                </mxCell>
                <mxCell id="3" value="提供一个默认叶子组件的入口，&lt;br&gt;解耦SchemaForm。" style="text;html=1;align=center;verticalAlign=middle;resizable=0;points=[];autosize=1;strokeColor=none;fillColor=none;" vertex="1" parent="1">
                    <mxGeometry x="540" y="40" width="190" height="40" as="geometry"/>
                </mxCell>
                <mxCell id="4" value="SchemaForm" style="rounded=1;whiteSpace=wrap;html=1;" vertex="1" parent="1">
                    <mxGeometry x="400" y="110" width="120" height="60" as="geometry"/>
                </mxCell>
                <mxCell id="5" value="入口组件，做表单校验，一些内容的分发&lt;br&gt;- SchemaFormItem 防止循环引用问题,通过provide传递&lt;br&gt;- errorSchema 表单项验证错误对象&lt;br&gt;- onValidate 暴露验证函数给外界&lt;br&gt;- ..." style="text;html=1;align=left;verticalAlign=middle;resizable=0;points=[];autosize=1;strokeColor=none;fillColor=none;" vertex="1" parent="1">
                    <mxGeometry x="530" y="95" width="320" height="90" as="geometry"/>
                </mxCell>
                <mxCell id="8" style="edgeStyle=none;html=1;exitX=0;exitY=1;exitDx=0;exitDy=0;entryX=0.5;entryY=0;entryDx=0;entryDy=0;" edge="1" parent="1" source="6" target="11">
                    <mxGeometry relative="1" as="geometry">
                        <mxPoint x="300" y="290" as="targetPoint"/>
                    </mxGeometry>
                </mxCell>
                <mxCell id="15" style="edgeStyle=none;html=1;entryX=0.5;entryY=0;entryDx=0;entryDy=0;" edge="1" parent="1" target="12">
                    <mxGeometry relative="1" as="geometry">
                        <mxPoint x="430" y="250" as="sourcePoint"/>
                    </mxGeometry>
                </mxCell>
                <mxCell id="16" style="edgeStyle=none;html=1;entryX=0.5;entryY=0;entryDx=0;entryDy=0;" edge="1" parent="1" source="6" target="14">
                    <mxGeometry relative="1" as="geometry"/>
                </mxCell>
                <mxCell id="18" style="edgeStyle=none;html=1;exitX=1;exitY=1;exitDx=0;exitDy=0;entryX=0.5;entryY=0;entryDx=0;entryDy=0;" edge="1" parent="1" source="6" target="17">
                    <mxGeometry relative="1" as="geometry"/>
                </mxCell>
                <mxCell id="6" value="SchemaFormItem" style="rounded=1;whiteSpace=wrap;html=1;" vertex="1" parent="1">
                    <mxGeometry x="400" y="190" width="120" height="60" as="geometry"/>
                </mxCell>
                <mxCell id="7" value="通过schema的type属性做组件判断，渲染对应的field" style="text;html=1;align=center;verticalAlign=middle;resizable=0;points=[];autosize=1;strokeColor=none;fillColor=none;" vertex="1" parent="1">
                    <mxGeometry x="530" y="205" width="300" height="30" as="geometry"/>
                </mxCell>
                <mxCell id="11" value="NumberField" style="rounded=1;whiteSpace=wrap;html=1;" vertex="1" parent="1">
                    <mxGeometry x="170" y="290" width="120" height="60" as="geometry"/>
                </mxCell>
                <mxCell id="12" value="StringField" style="rounded=1;whiteSpace=wrap;html=1;" vertex="1" parent="1">
                    <mxGeometry x="320" y="290" width="120" height="60" as="geometry"/>
                </mxCell>
                <mxCell id="14" value="ArrayField" style="rounded=1;whiteSpace=wrap;html=1;" vertex="1" parent="1">
                    <mxGeometry x="470" y="290" width="120" height="60" as="geometry"/>
                </mxCell>
                <mxCell id="17" value="ObjectField" style="rounded=1;whiteSpace=wrap;html=1;" vertex="1" parent="1">
                    <mxGeometry x="620" y="290" width="120" height="60" as="geometry"/>
                </mxCell>
                <mxCell id="19" value="&lt;div style=&quot;text-align: left;&quot;&gt;&lt;span style=&quot;background-color: initial;&quot;&gt;显然表单组件&lt;/span&gt;&lt;/div&gt;&lt;div style=&quot;text-align: left;&quot;&gt;&lt;span style=&quot;background-color: initial;&quot;&gt;该组件主要是通过getWidget函数获取，&lt;/span&gt;&lt;/div&gt;&lt;div style=&quot;text-align: left;&quot;&gt;&lt;span style=&quot;background-color: initial;&quot;&gt;theme提供的默认组件，获取通过uiSchema自定义的组件&lt;/span&gt;&lt;/div&gt;&lt;div style=&quot;text-align: left;&quot;&gt;&lt;span style=&quot;background-color: initial;&quot;&gt;&lt;br&gt;&lt;/span&gt;&lt;/div&gt;&lt;div style=&quot;text-align: left;&quot;&gt;&lt;span style=&quot;background-color: initial;&quot;&gt;并且通过withWidget HOC来处理错误和label等信息&lt;/span&gt;&lt;/div&gt;" style="text;html=1;align=center;verticalAlign=middle;resizable=0;points=[];autosize=1;strokeColor=none;fillColor=none;" vertex="1" parent="1">
                    <mxGeometry x="120" y="370" width="330" height="90" as="geometry"/>
                </mxCell>
                <mxCell id="20" value="&lt;div style=&quot;color: rgb(101, 123, 131); background-color: rgb(253, 246, 227); font-family: Consolas, &amp;quot;Courier New&amp;quot;, monospace; font-weight: normal; font-size: 20px; line-height: 27px;&quot;&gt;&lt;div&gt;&lt;span style=&quot;color: #93a1a1;font-style: italic;&quot;&gt;/**&lt;/span&gt;&lt;/div&gt;&lt;div&gt;&lt;span style=&quot;color: #93a1a1;font-style: italic;&quot;&gt;&amp;nbsp;* 方式一: 单类型数组渲染&lt;/span&gt;&lt;/div&gt;&lt;div&gt;&lt;span style=&quot;color: #93a1a1;font-style: italic;&quot;&gt;&amp;nbsp;* type: array,&lt;/span&gt;&lt;/div&gt;&lt;div&gt;&lt;span style=&quot;color: #93a1a1;font-style: italic;&quot;&gt;&amp;nbsp;* items: {type: string}&lt;/span&gt;&lt;/div&gt;&lt;div&gt;&lt;span style=&quot;color: #93a1a1;font-style: italic;&quot;&gt;&amp;nbsp;*&lt;/span&gt;&lt;/div&gt;&lt;div&gt;&lt;span style=&quot;color: #93a1a1;font-style: italic;&quot;&gt;&amp;nbsp;* 方式二&lt;/span&gt;&lt;/div&gt;&lt;div&gt;&lt;span style=&quot;color: #93a1a1;font-style: italic;&quot;&gt;&amp;nbsp;* type: array,&lt;/span&gt;&lt;/div&gt;&lt;div&gt;&lt;span style=&quot;color: #93a1a1;font-style: italic;&quot;&gt;&amp;nbsp;* items: [&lt;/span&gt;&lt;/div&gt;&lt;div&gt;&lt;span style=&quot;color: #93a1a1;font-style: italic;&quot;&gt;&amp;nbsp;* &amp;nbsp;{type: string},&lt;/span&gt;&lt;/div&gt;&lt;div&gt;&lt;span style=&quot;color: #93a1a1;font-style: italic;&quot;&gt;&amp;nbsp;* &amp;nbsp;{type: number}&lt;/span&gt;&lt;/div&gt;&lt;div&gt;&lt;span style=&quot;color: #93a1a1;font-style: italic;&quot;&gt;&amp;nbsp;* ]&lt;/span&gt;&lt;/div&gt;&lt;div&gt;&lt;span style=&quot;color: #93a1a1;font-style: italic;&quot;&gt;&amp;nbsp;*&lt;/span&gt;&lt;/div&gt;&lt;div&gt;&lt;span style=&quot;color: #93a1a1;font-style: italic;&quot;&gt;&amp;nbsp;* value=[&quot;zh&quot;, 123]&lt;/span&gt;&lt;/div&gt;&lt;div&gt;&lt;span style=&quot;color: #93a1a1;font-style: italic;&quot;&gt;&amp;nbsp;*&lt;/span&gt;&lt;/div&gt;&lt;div&gt;&lt;span style=&quot;color: #93a1a1;font-style: italic;&quot;&gt;&amp;nbsp;* 方式三&lt;/span&gt;&lt;/div&gt;&lt;div&gt;&lt;span style=&quot;color: #93a1a1;font-style: italic;&quot;&gt;&amp;nbsp;* type: array,&lt;/span&gt;&lt;/div&gt;&lt;div&gt;&lt;span style=&quot;color: #93a1a1;font-style: italic;&quot;&gt;&amp;nbsp;* items:{type: string, enum: [1,2]}&lt;/span&gt;&lt;/div&gt;&lt;div&gt;&lt;span style=&quot;color: #93a1a1;font-style: italic;&quot;&gt;&amp;nbsp;*/&lt;/span&gt;&lt;/div&gt;&lt;/div&gt;" style="text;whiteSpace=wrap;html=1;" vertex="1" parent="1">
                    <mxGeometry x="460" y="370" width="290" height="410" as="geometry"/>
                </mxCell>
                <mxCell id="21" value="主要是处理下方的三种情况，&lt;br&gt;然后递归调用SchemaFormItem直到渲染到NumberField,StringField" style="text;html=1;align=left;verticalAlign=middle;resizable=0;points=[];autosize=1;strokeColor=none;fillColor=none;" vertex="1" parent="1">
                    <mxGeometry x="95" y="520" width="380" height="40" as="geometry"/>
                </mxCell>
                <mxCell id="22" value="&lt;font style=&quot;font-size: 14px;&quot;&gt;NumberField,&lt;br&gt;StringField&lt;/font&gt;" style="text;html=1;align=left;verticalAlign=middle;resizable=0;points=[];autosize=1;strokeColor=none;fillColor=none;" vertex="1" parent="1">
                    <mxGeometry x="15" y="385" width="110" height="50" as="geometry"/>
                </mxCell>
                <mxCell id="23" value="ArrayField" style="text;html=1;align=center;verticalAlign=middle;resizable=0;points=[];autosize=1;strokeColor=none;fillColor=none;fontSize=14;" vertex="1" parent="1">
                    <mxGeometry y="525" width="90" height="30" as="geometry"/>
                </mxCell>
                <mxCell id="24" value="&lt;font style=&quot;font-size: 12px;&quot;&gt;主要是循环渲染schema，直到类型为number,string&lt;/font&gt;" style="text;html=1;align=center;verticalAlign=middle;resizable=0;points=[];autosize=1;strokeColor=none;fillColor=none;fontSize=14;" vertex="1" parent="1">
                    <mxGeometry x="620" y="350" width="290" height="30" as="geometry"/>
                </mxCell>
            </root>
        </mxGraphModel>
    </diagram>
</mxfile>